# xmcd CD database file
#
# Track frame offsets:
#	150
#	15137
#	36442
#
# Disc length: 780 seconds
#
# Revision: 0
# Processed by: cddbd v1.5PL3 Copyright (c) Steve Scherf et al.
# Submitted via: CDex 1.51
#
DISCID=16030a03
DTITLE=宮村優子・住友優子・仙台エリ - 南海奇皇(ネオランガ)Second Season
DYEAR=1900
DGENRE=アニメ
TTITLE0=神to汝【カミトナレ】
TTITLE1=So Far So Good
TTITLE2=渇きの庭にて
EXTD=
EXTT0=
EXTT1=
EXTT2=
PLAYORDER=
